<?xml version="1.0" standalone="no"?>
 <!DOCTYPE svg PUBLIC "-//W3C//DTD SVG 1.1//EN" 
 "http://www.w3.org/Graphics/SVG/1.1/DTD/svg11.dtd"> 
<svg xmlns="http://www.w3.org/2000/svg" version="1.1" 
    width="29.7002cm" height="21.0007cm" viewBox="0 0 116930 82680 ">
<title>SVG Picture created as MBI5024 Adapter-F.Cu.svg date 2019/01/13 15:26:57 </title>
  <desc>Picture generated by PCBNEW </desc>
<g style="fill:#000000; fill-opacity:1;stroke:#000000; stroke-opacity:1;
stroke-linecap:round; stroke-linejoin:round; "
 transform="translate(0 0) scale(1 1)">
</g>
<g style="fill:#000000; fill-opacity:0.0; 
stroke:#000000; stroke-width:-0.000393701; stroke-opacity:1; 
stroke-linecap:round; stroke-linejoin:round;">
</g>
<g style="fill:#000000; fill-opacity:0.0; 
stroke:#000000; stroke-width:78.7402; stroke-opacity:1; 
stroke-linecap:round; stroke-linejoin:round;">
<path d="M69017 37099
L68267 37099
L67967 36949
L67817 36649
L67817 36350
L67967 36050
L68267 35900
L69017 35900
" />
</g>
<g style="fill:#000000; fill-opacity:0.0; 
stroke:#000000; stroke-width:59.0551; stroke-opacity:1; 
stroke-linecap:round; stroke-linejoin:round;">
<path d="M57327 38702
L57342 38732
L57342 38792
L57327 38822
L57297 38852
L57267 38867
L57207 38867
L57177 38852
L57147 38822
L57132 38792
L57132 38732
L57147 38702
" />
<path d="M57447 38762
L57432 38837
L57387 38912
L57312 38957
L57237 38972
L57162 38957
L57087 38912
L57042 38837
L57027 38762
L57042 38687
L57087 38612
L57162 38567
L57237 38552
L57312 38567
L57387 38612
L57432 38687
L57447 38762
" />
<path d="M57372 38192
L57387 38177
L57402 38147
L57402 38072
L57387 38042
L57372 38027
L57342 38012
L57312 38012
L57267 38027
L57087 38207
L57087 38012
" />
<path d="M57402 37817
L57402 37787
L57387 37757
L57372 37742
L57342 37727
L57282 37712
L57207 37712
L57147 37727
L57117 37742
L57102 37757
L57087 37787
L57087 37817
L57102 37847
L57117 37862
L57147 37877
L57207 37892
L57282 37892
L57342 37877
L57372 37862
L57387 37847
L57402 37817
" />
<path d="M57087 37412
L57087 37592
" />
<path d="M57087 37502
L57402 37502
L57357 37532
L57327 37562
L57312 37592
" />
<path d="M57087 37262
L57087 37202
L57102 37172
L57117 37157
L57162 37127
L57222 37112
L57342 37112
L57372 37127
L57387 37142
L57402 37172
L57402 37232
L57387 37262
L57372 37277
L57342 37292
L57267 37292
L57237 37277
L57222 37262
L57207 37232
L57207 37172
L57222 37142
L57237 37127
L57267 37112
" />
<path d="M57087 36737
L57297 36737
" />
<path d="M57267 36737
L57282 36722
L57297 36692
L57297 36647
L57282 36617
L57252 36602
L57087 36602
" />
<path d="M57252 36602
L57282 36587
L57297 36557
L57297 36512
L57282 36482
L57252 36467
L57087 36467
" />
<path d="M57087 36182
L57252 36182
L57282 36197
L57297 36227
L57297 36287
L57282 36317
" />
<path d="M57102 36182
L57087 36212
L57087 36287
L57102 36317
L57132 36332
L57162 36332
L57192 36317
L57207 36287
L57207 36212
L57222 36182
" />
<path d="M57297 36077
L57297 35957
" />
<path d="M57402 36032
L57132 36032
L57102 36017
L57087 35987
L57087 35957
" />
<path d="M57297 35897
L57297 35777
" />
<path d="M57402 35852
L57132 35852
L57102 35837
L57087 35807
L57087 35777
" />
<path d="M57102 35687
L57087 35657
L57087 35597
L57102 35567
L57132 35552
L57147 35552
L57177 35567
L57192 35597
L57192 35642
L57207 35672
L57237 35687
L57252 35687
L57282 35672
L57297 35642
L57297 35597
L57282 35567
" />
<path d="M57087 35372
L57102 35402
L57117 35417
L57147 35432
L57237 35432
L57267 35417
L57282 35402
L57297 35372
L57297 35327
L57282 35297
L57267 35282
L57237 35267
L57147 35267
L57117 35282
L57102 35297
L57087 35327
L57087 35372
" />
<path d="M57297 35177
L57297 35057
" />
<path d="M57087 35132
L57357 35132
L57387 35117
L57402 35087
L57402 35057
" />
<path d="M57297 34997
L57297 34877
" />
<path d="M57402 34952
L57132 34952
L57102 34937
L57087 34907
L57087 34877
" />
<path d="M57297 34802
L57087 34742
L57237 34682
L57087 34622
L57297 34562
" />
<path d="M57087 34307
L57252 34307
L57282 34322
L57297 34352
L57297 34412
L57282 34442
" />
<path d="M57102 34307
L57087 34337
L57087 34412
L57102 34442
L57132 34457
L57162 34457
L57192 34442
L57207 34412
L57207 34337
L57222 34307
" />
<path d="M57087 34157
L57297 34157
" />
<path d="M57237 34157
L57267 34142
L57282 34127
L57297 34097
L57297 34067
" />
<path d="M57102 33842
L57087 33872
L57087 33932
L57102 33962
L57132 33977
L57252 33977
L57282 33962
L57297 33932
L57297 33872
L57282 33842
L57252 33827
L57222 33827
L57192 33977
" />
</g>
<g style="fill:#000000; fill-opacity:0.0; 
stroke:#000000; stroke-width:78.7402; stroke-opacity:1; 
stroke-linecap:round; stroke-linejoin:round;">
<path d="M69130 32100
L56730 32100
" />
<path d="M69130 40700
L69130 32100
" />
<path d="M56730 40700
L69130 40700
" />
<path d="M56730 32100
L56730 40700
" />
</g>
<g style="fill:#000000; fill-opacity:1.0; 
stroke:#000000; stroke-width:0; stroke-opacity:1; 
stroke-linecap:round; stroke-linejoin:round;">
<circle cx="57430" cy="40000" r="334.646" /> 
</g>
<g style="fill:#000000; fill-opacity:1.0; 
stroke:#000000; stroke-width:39.3701; stroke-opacity:1; 
stroke-linecap:round; stroke-linejoin:round;">
</g>
<g style="fill:#000000; fill-opacity:1.0; 
stroke:#000000; stroke-width:669.291; stroke-opacity:1; 
stroke-linecap:round; stroke-linejoin:round;">
</g>
<g style="fill:#000000; fill-opacity:0.0; 
stroke:#000000; stroke-width:669.291; stroke-opacity:1; 
stroke-linecap:round; stroke-linejoin:round;">
<path d="M58430 40000
L58430 40000
" />
<path d="M59430 40000
L59430 40000
" />
<path d="M60430 40000
L60430 40000
" />
<path d="M61430 40000
L61430 40000
" />
<path d="M62430 40000
L62430 40000
" />
<path d="M63430 40000
L63430 40000
" />
<path d="M64430 40000
L64430 40000
" />
<path d="M65430 40000
L65430 40000
" />
<path d="M66430 40000
L66430 40000
" />
<path d="M67430 40000
L67430 40000
" />
<path d="M68430 40000
L68430 40000
" />
<path d="M57430 32800
L57430 32800
" />
<path d="M58430 32800
L58430 32800
" />
<path d="M59430 32800
L59430 32800
" />
<path d="M60430 32800
L60430 32800
" />
<path d="M61430 32800
L61430 32800
" />
<path d="M62430 32800
L62430 32800
" />
<path d="M63430 32800
L63430 32800
" />
<path d="M64430 32800
L64430 32800
" />
<path d="M65430 32800
L65430 32800
" />
<path d="M66430 32800
L66430 32800
" />
<path d="M67430 32800
L67430 32800
" />
</g>
<g style="fill:#000000; fill-opacity:1.0; 
stroke:#000000; stroke-width:0; stroke-opacity:1; 
stroke-linecap:round; stroke-linejoin:round;">
<circle cx="68430" cy="32800" r="334.646" /> 
</g>
<g style="fill:#000000; fill-opacity:1.0; 
stroke:#000000; stroke-width:39.3701; stroke-opacity:1; 
stroke-linecap:round; stroke-linejoin:round;">
</g>
<g style="fill:#000000; fill-opacity:1.0; 
stroke:#000000; stroke-width:0; stroke-opacity:1; 
stroke-linecap:round; stroke-linejoin:round;">
<polyline style="fill-rule:evenodd;"
points="65193,38389
65193,37602
64996,37602
64996,38389
65193,38389
" /> 
<polyline style="fill-rule:evenodd;"
points="64800,38393
64800,37606
64603,37606
64603,38393
64800,38393
" /> 
<polyline style="fill-rule:evenodd;"
points="64406,38393
64406,37606
64209,37606
64209,38393
64406,38393
" /> 
<polyline style="fill-rule:evenodd;"
points="64012,38393
64012,37606
63815,37606
63815,38393
64012,38393
" /> 
<polyline style="fill-rule:evenodd;"
points="63618,38393
63618,37606
63422,37606
63422,38393
63618,38393
" /> 
<polyline style="fill-rule:evenodd;"
points="63225,38393
63225,37606
63028,37606
63028,38393
63225,38393
" /> 
<polyline style="fill-rule:evenodd;"
points="62831,38393
62831,37606
62634,37606
62634,38393
62831,38393
" /> 
<polyline style="fill-rule:evenodd;"
points="62437,38393
62437,37606
62241,37606
62241,38393
62437,38393
" /> 
<polyline style="fill-rule:evenodd;"
points="62044,38393
62044,37606
61847,37606
61847,38393
62044,38393
" /> 
<polyline style="fill-rule:evenodd;"
points="61650,38393
61650,37606
61453,37606
61453,38393
61650,38393
" /> 
<polyline style="fill-rule:evenodd;"
points="61256,38393
61256,37606
61059,37606
61059,38393
61256,38393
" /> 
<polyline style="fill-rule:evenodd;"
points="60863,38393
60863,37606
60666,37606
60666,38393
60863,38393
" /> 
<polyline style="fill-rule:evenodd;"
points="60863,35393
60863,34606
60666,34606
60666,35393
60863,35393
" /> 
<polyline style="fill-rule:evenodd;"
points="61256,35393
61256,34606
61059,34606
61059,35393
61256,35393
" /> 
<polyline style="fill-rule:evenodd;"
points="61650,35393
61650,34606
61453,34606
61453,35393
61650,35393
" /> 
<polyline style="fill-rule:evenodd;"
points="62044,35393
62044,34606
61847,34606
61847,35393
62044,35393
" /> 
<polyline style="fill-rule:evenodd;"
points="62437,35393
62437,34606
62241,34606
62241,35393
62437,35393
" /> 
<polyline style="fill-rule:evenodd;"
points="62831,35393
62831,34606
62634,34606
62634,35393
62831,35393
" /> 
<polyline style="fill-rule:evenodd;"
points="63225,35393
63225,34606
63028,34606
63028,35393
63225,35393
" /> 
<polyline style="fill-rule:evenodd;"
points="63618,35393
63618,34606
63422,34606
63422,35393
63618,35393
" /> 
<polyline style="fill-rule:evenodd;"
points="64012,35393
64012,34606
63815,34606
63815,35393
64012,35393
" /> 
<polyline style="fill-rule:evenodd;"
points="64406,35393
64406,34606
64209,34606
64209,35393
64406,35393
" /> 
<polyline style="fill-rule:evenodd;"
points="64800,35393
64800,34606
64603,34606
64603,35393
64800,35393
" /> 
<polyline style="fill-rule:evenodd;"
points="65193,35393
65193,34606
64996,34606
64996,35393
65193,35393
" /> 
</g>
<g style="fill:#000000; fill-opacity:1.0; 
stroke:#000000; stroke-width:196.85; stroke-opacity:1; 
stroke-linecap:round; stroke-linejoin:round;">
</g>
<g style="fill:#000000; fill-opacity:0.0; 
stroke:#000000; stroke-width:196.85; stroke-opacity:1; 
stroke-linecap:round; stroke-linejoin:round;">
<path d="M59430 38000
L57430 40000
" />
<path d="M60764 38000
L59430 38000
" />
<path d="M61048 38700
L59729 38700
" />
<path d="M58764 39665
L58430 40000
" />
<path d="M59729 38700
L58764 39665
" />
<path d="M61158 38590
L61048 38700
" />
<path d="M61158 38000
L61158 38590
" />
<path d="M59764 39665
L59430 40000
" />
<path d="M61318 39055
L60374 39055
" />
<path d="M61552 38822
L61318 39055
" />
<path d="M60374 39055
L59764 39665
" />
<path d="M61552 38000
L61552 38822
" />
<path d="M61930 38031
L61930 38998
" />
<path d="M61945 38015
L61930 38031
" />
<path d="M61945 38000
L61945 38015
" />
<path d="M60764 39665
L60430 40000
" />
<path d="M61020 39409
L60764 39665
" />
<path d="M61519 39409
L61020 39409
" />
<path d="M61930 38998
L61519 39409
" />
<path d="M62339 39090
L61430 40000
" />
<path d="M62339 38000
L62339 39090
" />
<path d="M62733 39696
L62430 40000
" />
<path d="M62733 38000
L62733 39696
" />
<path d="M63126 39696
L63430 40000
" />
<path d="M63126 38000
L63126 39696
" />
<path d="M63520 39090
L64430 40000
" />
<path d="M63520 38000
L63520 39090
" />
<path d="M63914 38590
L63930 38606
" />
<path d="M63914 38000
L63914 38590
" />
<path d="M63930 38606
L63930 38900
" />
<path d="M63930 38900
L64439 39409
" />
<path d="M64439 39409
L64448 39400
" />
<path d="M64830 39400
L65430 40000
" />
<path d="M64448 39400
L64830 39400
" />
<path d="M64307 38000
L64307 38776
" />
<path d="M64576 39045
L65075 39045
" />
<path d="M64307 38776
L64576 39045
" />
<path d="M65075 39045
L65439 39409
" />
<path d="M65439 39409
L65448 39400
" />
<path d="M65830 39400
L66430 40000
" />
<path d="M65448 39400
L65830 39400
" />
<path d="M66121 38691
L67095 39665
" />
<path d="M64837 38691
L66121 38691
" />
<path d="M64701 38555
L64837 38691
" />
<path d="M67095 39665
L67430 40000
" />
<path d="M64701 38000
L64701 38555
" />
<path d="M66426 37996
L68430 40000
" />
<path d="M65095 37996
L66426 37996
" />
<path d="M59630 35000
L57430 32800
" />
<path d="M60764 35000
L59630 35000
" />
<path d="M59729 34099
L58764 33134
" />
<path d="M60848 34099
L59729 34099
" />
<path d="M58764 33134
L58430 32800
" />
<path d="M61158 34409
L60848 34099
" />
<path d="M61158 35000
L61158 34409
" />
<path d="M60374 33744
L59764 33134
" />
<path d="M61372 33744
L60374 33744
" />
<path d="M59764 33134
L59430 32800
" />
<path d="M61552 33924
L61372 33744
" />
<path d="M61552 35000
L61552 33924
" />
<path d="M61945 35000
L61945 33816
" />
<path d="M60764 33134
L60430 32800
" />
<path d="M61519 33390
L61020 33390
" />
<path d="M61020 33390
L60764 33134
" />
<path d="M61945 33816
L61519 33390
" />
<path d="M62339 33709
L61430 32800
" />
<path d="M62339 35000
L62339 33709
" />
<path d="M62733 33103
L62430 32800
" />
<path d="M62733 35000
L62733 33103
" />
<path d="M63126 33103
L63430 32800
" />
<path d="M63126 35000
L63126 33103
" />
<path d="M63520 33709
L64430 32800
" />
<path d="M63520 35000
L63520 33709
" />
<path d="M65430 32800
L64839 33390
" />
<path d="M64839 33390
L64340 33390
" />
<path d="M63914 33816
L63914 35000
" />
<path d="M64340 33390
L63914 33816
" />
<path d="M66430 32800
L65839 33390
" />
<path d="M65340 33390
L64831 33900
" />
<path d="M65839 33390
L65340 33390
" />
<path d="M64831 33900
L64332 33900
" />
<path d="M64307 33924
L64307 35000
" />
<path d="M64332 33900
L64307 33924
" />
<path d="M65879 34350
L67095 33134
" />
<path d="M67095 33134
L67430 32800
" />
<path d="M64760 34350
L65879 34350
" />
<path d="M64701 34409
L64760 34350
" />
<path d="M64701 35000
L64701 34409
" />
<path d="M66230 35000
L68430 32800
" />
<path d="M65095 35000
L66230 35000
" />
</g>
<g style="fill:#FFFFFF; fill-opacity:0.0; 
stroke:#FFFFFF; stroke-width:196.85; stroke-opacity:1; 
stroke-linecap:round; stroke-linejoin:round;">
</g>
<g style="fill:#FFFFFF; fill-opacity:1.0; 
stroke:#FFFFFF; stroke-width:0; stroke-opacity:1; 
stroke-linecap:round; stroke-linejoin:round;">
<circle cx="57430" cy="40000" r="68.8976" /> 
</g>
<g style="fill:#FFFFFF; fill-opacity:1.0; 
stroke:#FFFFFF; stroke-width:39.3701; stroke-opacity:1; 
stroke-linecap:round; stroke-linejoin:round;">
</g>
<g style="fill:#FFFFFF; fill-opacity:1.0; 
stroke:#FFFFFF; stroke-width:0; stroke-opacity:1; 
stroke-linecap:round; stroke-linejoin:round;">
<circle cx="58430" cy="40000" r="68.8976" /> 
</g>
<g style="fill:#FFFFFF; fill-opacity:1.0; 
stroke:#FFFFFF; stroke-width:39.3701; stroke-opacity:1; 
stroke-linecap:round; stroke-linejoin:round;">
</g>
<g style="fill:#FFFFFF; fill-opacity:1.0; 
stroke:#FFFFFF; stroke-width:0; stroke-opacity:1; 
stroke-linecap:round; stroke-linejoin:round;">
<circle cx="59430" cy="40000" r="68.8976" /> 
</g>
<g style="fill:#FFFFFF; fill-opacity:1.0; 
stroke:#FFFFFF; stroke-width:39.3701; stroke-opacity:1; 
stroke-linecap:round; stroke-linejoin:round;">
</g>
<g style="fill:#FFFFFF; fill-opacity:1.0; 
stroke:#FFFFFF; stroke-width:0; stroke-opacity:1; 
stroke-linecap:round; stroke-linejoin:round;">
<circle cx="60430" cy="40000" r="68.8976" /> 
</g>
<g style="fill:#FFFFFF; fill-opacity:1.0; 
stroke:#FFFFFF; stroke-width:39.3701; stroke-opacity:1; 
stroke-linecap:round; stroke-linejoin:round;">
</g>
<g style="fill:#FFFFFF; fill-opacity:1.0; 
stroke:#FFFFFF; stroke-width:0; stroke-opacity:1; 
stroke-linecap:round; stroke-linejoin:round;">
<circle cx="61430" cy="40000" r="68.8976" /> 
</g>
<g style="fill:#FFFFFF; fill-opacity:1.0; 
stroke:#FFFFFF; stroke-width:39.3701; stroke-opacity:1; 
stroke-linecap:round; stroke-linejoin:round;">
</g>
<g style="fill:#FFFFFF; fill-opacity:1.0; 
stroke:#FFFFFF; stroke-width:0; stroke-opacity:1; 
stroke-linecap:round; stroke-linejoin:round;">
<circle cx="62430" cy="40000" r="68.8976" /> 
</g>
<g style="fill:#FFFFFF; fill-opacity:1.0; 
stroke:#FFFFFF; stroke-width:39.3701; stroke-opacity:1; 
stroke-linecap:round; stroke-linejoin:round;">
</g>
<g style="fill:#FFFFFF; fill-opacity:1.0; 
stroke:#FFFFFF; stroke-width:0; stroke-opacity:1; 
stroke-linecap:round; stroke-linejoin:round;">
<circle cx="63430" cy="40000" r="68.8976" /> 
</g>
<g style="fill:#FFFFFF; fill-opacity:1.0; 
stroke:#FFFFFF; stroke-width:39.3701; stroke-opacity:1; 
stroke-linecap:round; stroke-linejoin:round;">
</g>
<g style="fill:#FFFFFF; fill-opacity:1.0; 
stroke:#FFFFFF; stroke-width:0; stroke-opacity:1; 
stroke-linecap:round; stroke-linejoin:round;">
<circle cx="64430" cy="40000" r="68.8976" /> 
</g>
<g style="fill:#FFFFFF; fill-opacity:1.0; 
stroke:#FFFFFF; stroke-width:39.3701; stroke-opacity:1; 
stroke-linecap:round; stroke-linejoin:round;">
</g>
<g style="fill:#FFFFFF; fill-opacity:1.0; 
stroke:#FFFFFF; stroke-width:0; stroke-opacity:1; 
stroke-linecap:round; stroke-linejoin:round;">
<circle cx="65430" cy="40000" r="68.8976" /> 
</g>
<g style="fill:#FFFFFF; fill-opacity:1.0; 
stroke:#FFFFFF; stroke-width:39.3701; stroke-opacity:1; 
stroke-linecap:round; stroke-linejoin:round;">
</g>
<g style="fill:#FFFFFF; fill-opacity:1.0; 
stroke:#FFFFFF; stroke-width:0; stroke-opacity:1; 
stroke-linecap:round; stroke-linejoin:round;">
<circle cx="66430" cy="40000" r="68.8976" /> 
</g>
<g style="fill:#FFFFFF; fill-opacity:1.0; 
stroke:#FFFFFF; stroke-width:39.3701; stroke-opacity:1; 
stroke-linecap:round; stroke-linejoin:round;">
</g>
<g style="fill:#FFFFFF; fill-opacity:1.0; 
stroke:#FFFFFF; stroke-width:0; stroke-opacity:1; 
stroke-linecap:round; stroke-linejoin:round;">
<circle cx="67430" cy="40000" r="68.8976" /> 
</g>
<g style="fill:#FFFFFF; fill-opacity:1.0; 
stroke:#FFFFFF; stroke-width:39.3701; stroke-opacity:1; 
stroke-linecap:round; stroke-linejoin:round;">
</g>
<g style="fill:#FFFFFF; fill-opacity:1.0; 
stroke:#FFFFFF; stroke-width:0; stroke-opacity:1; 
stroke-linecap:round; stroke-linejoin:round;">
<circle cx="68430" cy="40000" r="68.8976" /> 
</g>
<g style="fill:#FFFFFF; fill-opacity:1.0; 
stroke:#FFFFFF; stroke-width:39.3701; stroke-opacity:1; 
stroke-linecap:round; stroke-linejoin:round;">
</g>
<g style="fill:#FFFFFF; fill-opacity:1.0; 
stroke:#FFFFFF; stroke-width:0; stroke-opacity:1; 
stroke-linecap:round; stroke-linejoin:round;">
<circle cx="57430" cy="32800" r="68.8976" /> 
</g>
<g style="fill:#FFFFFF; fill-opacity:1.0; 
stroke:#FFFFFF; stroke-width:39.3701; stroke-opacity:1; 
stroke-linecap:round; stroke-linejoin:round;">
</g>
<g style="fill:#FFFFFF; fill-opacity:1.0; 
stroke:#FFFFFF; stroke-width:0; stroke-opacity:1; 
stroke-linecap:round; stroke-linejoin:round;">
<circle cx="58430" cy="32800" r="68.8976" /> 
</g>
<g style="fill:#FFFFFF; fill-opacity:1.0; 
stroke:#FFFFFF; stroke-width:39.3701; stroke-opacity:1; 
stroke-linecap:round; stroke-linejoin:round;">
</g>
<g style="fill:#FFFFFF; fill-opacity:1.0; 
stroke:#FFFFFF; stroke-width:0; stroke-opacity:1; 
stroke-linecap:round; stroke-linejoin:round;">
<circle cx="59430" cy="32800" r="68.8976" /> 
</g>
<g style="fill:#FFFFFF; fill-opacity:1.0; 
stroke:#FFFFFF; stroke-width:39.3701; stroke-opacity:1; 
stroke-linecap:round; stroke-linejoin:round;">
</g>
<g style="fill:#FFFFFF; fill-opacity:1.0; 
stroke:#FFFFFF; stroke-width:0; stroke-opacity:1; 
stroke-linecap:round; stroke-linejoin:round;">
<circle cx="60430" cy="32800" r="68.8976" /> 
</g>
<g style="fill:#FFFFFF; fill-opacity:1.0; 
stroke:#FFFFFF; stroke-width:39.3701; stroke-opacity:1; 
stroke-linecap:round; stroke-linejoin:round;">
</g>
<g style="fill:#FFFFFF; fill-opacity:1.0; 
stroke:#FFFFFF; stroke-width:0; stroke-opacity:1; 
stroke-linecap:round; stroke-linejoin:round;">
<circle cx="61430" cy="32800" r="68.8976" /> 
</g>
<g style="fill:#FFFFFF; fill-opacity:1.0; 
stroke:#FFFFFF; stroke-width:39.3701; stroke-opacity:1; 
stroke-linecap:round; stroke-linejoin:round;">
</g>
<g style="fill:#FFFFFF; fill-opacity:1.0; 
stroke:#FFFFFF; stroke-width:0; stroke-opacity:1; 
stroke-linecap:round; stroke-linejoin:round;">
<circle cx="62430" cy="32800" r="68.8976" /> 
</g>
<g style="fill:#FFFFFF; fill-opacity:1.0; 
stroke:#FFFFFF; stroke-width:39.3701; stroke-opacity:1; 
stroke-linecap:round; stroke-linejoin:round;">
</g>
<g style="fill:#FFFFFF; fill-opacity:1.0; 
stroke:#FFFFFF; stroke-width:0; stroke-opacity:1; 
stroke-linecap:round; stroke-linejoin:round;">
<circle cx="63430" cy="32800" r="68.8976" /> 
</g>
<g style="fill:#FFFFFF; fill-opacity:1.0; 
stroke:#FFFFFF; stroke-width:39.3701; stroke-opacity:1; 
stroke-linecap:round; stroke-linejoin:round;">
</g>
<g style="fill:#FFFFFF; fill-opacity:1.0; 
stroke:#FFFFFF; stroke-width:0; stroke-opacity:1; 
stroke-linecap:round; stroke-linejoin:round;">
<circle cx="64430" cy="32800" r="68.8976" /> 
</g>
<g style="fill:#FFFFFF; fill-opacity:1.0; 
stroke:#FFFFFF; stroke-width:39.3701; stroke-opacity:1; 
stroke-linecap:round; stroke-linejoin:round;">
</g>
<g style="fill:#FFFFFF; fill-opacity:1.0; 
stroke:#FFFFFF; stroke-width:0; stroke-opacity:1; 
stroke-linecap:round; stroke-linejoin:round;">
<circle cx="65430" cy="32800" r="68.8976" /> 
</g>
<g style="fill:#FFFFFF; fill-opacity:1.0; 
stroke:#FFFFFF; stroke-width:39.3701; stroke-opacity:1; 
stroke-linecap:round; stroke-linejoin:round;">
</g>
<g style="fill:#FFFFFF; fill-opacity:1.0; 
stroke:#FFFFFF; stroke-width:0; stroke-opacity:1; 
stroke-linecap:round; stroke-linejoin:round;">
<circle cx="66430" cy="32800" r="68.8976" /> 
</g>
<g style="fill:#FFFFFF; fill-opacity:1.0; 
stroke:#FFFFFF; stroke-width:39.3701; stroke-opacity:1; 
stroke-linecap:round; stroke-linejoin:round;">
</g>
<g style="fill:#FFFFFF; fill-opacity:1.0; 
stroke:#FFFFFF; stroke-width:0; stroke-opacity:1; 
stroke-linecap:round; stroke-linejoin:round;">
<circle cx="67430" cy="32800" r="68.8976" /> 
</g>
<g style="fill:#FFFFFF; fill-opacity:1.0; 
stroke:#FFFFFF; stroke-width:39.3701; stroke-opacity:1; 
stroke-linecap:round; stroke-linejoin:round;">
</g>
<g style="fill:#FFFFFF; fill-opacity:1.0; 
stroke:#FFFFFF; stroke-width:0; stroke-opacity:1; 
stroke-linecap:round; stroke-linejoin:round;">
<circle cx="68430" cy="32800" r="68.8976" /> 
</g>
<g style="fill:#FFFFFF; fill-opacity:1.0; 
stroke:#FFFFFF; stroke-width:39.3701; stroke-opacity:1; 
stroke-linecap:round; stroke-linejoin:round;">
</g>
<g style="fill:#000000; fill-opacity:1.0; 
stroke:#000000; stroke-width:39.3701; stroke-opacity:1; 
stroke-linecap:round; stroke-linejoin:round;">
</g> 
</svg>
